<?xml version="1.0" standalone="no"?>
<!DOCTYPE svg PUBLIC "-//W3C//DTD SVG 20010904//EN"
 "http://www.w3.org/TR/2001/REC-SVG-20010904/DTD/svg10.dtd">
<svg version="1.0" xmlns="http://www.w3.org/2000/svg"
 width="100.000000pt" height="100.000000pt" viewBox="0 0 100.000000 100.000000"
 preserveAspectRatio="xMidYMid meet">
<metadata>
Created by potrace 1.16, written by Peter Selinger 2001-2019
</metadata>
<g transform="translate(0.000000,100.000000) scale(0.008540,-0.005621)"
fill="#000000" stroke="none">
<path d="M5299 17089 c-34 -36 -27 -53 22 -64 19 -4 34 -16 40 -32 6 -17 14
-23 27 -19 121 37 229 45 283 21 55 -25 70 -15 33 23 -39 39 -84 47 -188 35
-66 -8 -84 -7 -95 5 -10 9 -25 12 -49 7 -34 -6 -35 -6 -29 24 8 40 -7 40 -44
0z"/>
<path d="M7376 17081 c-3 -5 16 -11 42 -14 42 -4 53 -11 107 -70 59 -63 115
-152 115 -182 0 -19 0 -19 -68 1 -119 34 -193 90 -226 168 -17 42 -36 55 -36
26 0 -86 143 -209 243 -210 20 0 37 -4 37 -10 0 -5 14 -10 30 -10 43 0 73 -36
97 -117 22 -74 46 -91 51 -35 3 25 -6 47 -37 92 -21 33 -45 77 -52 97 -20 64
-37 91 -108 172 -52 58 -79 80 -109 89 -47 14 -79 15 -86 3z"/>
<path d="M5162 17000 c-81 -5 -85 -6 -118 -43 -32 -34 -35 -42 -32 -90 3 -44
6 -52 23 -52 15 0 25 14 41 60 23 64 65 108 85 88 8 -8 8 -17 0 -31 -16 -30
-14 -82 3 -82 14 0 46 -72 46 -103 0 -24 18 -57 30 -57 6 0 10 31 10 70 0 45
7 88 20 122 18 48 18 53 4 70 -9 9 -14 24 -11 32 8 20 -5 22 -101 16z"/>
<path d="M5483 16909 c-35 -10 -56 -31 -23 -22 27 7 27 -23 -1 -37 -28 -15
-83 -133 -74 -160 13 -42 29 -17 49 80 3 14 23 44 44 67 35 38 41 41 73 34
l34 -7 5 -96 c3 -53 8 -99 12 -103 16 -16 26 9 33 77 4 40 13 83 21 95 23 37
18 53 -18 53 -18 1 -44 7 -58 15 -28 16 -51 17 -97 4z"/>
<path d="M6814 16895 c26 -39 21 -45 -39 -40 -29 3 -56 1 -60 -4 -3 -5 8 -38
25 -73 35 -74 38 -98 11 -98 -36 0 -35 -22 2 -57 41 -37 77 -44 77 -14 0 11 4
22 9 25 19 12 38 -6 75 -69 21 -36 41 -65 46 -65 4 0 24 -11 44 -25 42 -28 56
-26 56 11 0 28 12 30 92 13 62 -13 88 -35 129 -105 45 -79 36 -86 -32 -23 -24
22 -61 49 -82 60 l-38 20 13 -23 c7 -13 27 -46 45 -74 18 -28 37 -72 43 -98
10 -48 3 -153 -11 -162 -9 -5 -39 47 -39 68 0 7 -9 24 -20 38 -11 14 -20 35
-20 48 0 19 2 21 19 10 11 -7 25 -23 31 -36 7 -17 14 -22 21 -15 16 16 -40 95
-62 88 -12 -4 -20 1 -24 15 -10 32 -24 14 -31 -40 -9 -69 -78 -173 -118 -180
-38 -6 -35 -20 12 -46 45 -25 53 -51 18 -60 -13 -3 -34 -3 -46 1 -33 10 -100
80 -100 103 0 21 -23 46 -33 35 -4 -3 -7 -40 -7 -82 0 -89 -19 -138 -75 -200
-21 -23 -45 -56 -54 -73 -13 -27 -35 -41 -135 -85 -66 -29 -123 -53 -127 -53
-4 0 -9 7 -13 15 -4 10 8 25 34 43 22 15 39 30 40 35 0 4 15 21 33 38 l32 31
-35 -25 c-55 -38 -133 -77 -156 -77 -20 0 -116 -90 -172 -159 -21 -26 -43 -22
-35 7 2 10 -2 24 -10 30 -12 10 -21 8 -45 -13 -38 -31 -46 -31 -61 1 -6 14
-17 24 -24 21 -46 -19 -45 -20 -52 30 -3 27 -2 60 4 75 7 18 7 29 0 34 -15 9
-35 -12 -70 -74 -17 -31 -42 -67 -55 -80 -18 -18 -24 -39 -28 -95 -7 -76 2
-138 19 -138 6 1 11 28 13 61 3 70 19 79 45 24 22 -46 41 -39 47 17 9 75 25
44 30 -58 4 -81 10 -108 33 -155 16 -32 33 -58 38 -58 5 0 9 24 9 53 0 35 7
62 20 81 l19 30 10 -27 c6 -15 12 -27 14 -27 3 0 28 36 56 79 52 80 115 146
131 136 4 -3 4 -22 -2 -43 -13 -47 -2 -203 18 -251 24 -58 66 -114 75 -100 4
7 1 25 -7 40 -16 32 -18 97 -4 119 5 8 10 12 12 10 2 -3 16 -25 32 -49 24 -38
31 -42 56 -38 21 5 33 0 50 -19 27 -27 40 -31 40 -9 0 19 12 19 49 -2 16 -10
32 -15 35 -13 2 3 0 25 -6 50 -13 60 1 96 41 105 44 9 134 -53 184 -127 45
-67 90 -103 115 -92 29 12 45 4 104 -52 31 -30 65 -54 76 -54 11 0 25 -6 31
-14 13 -16 3 -26 -48 -46 -37 -15 -36 -16 -99 64 -33 43 -39 24 -11 -36 20
-44 24 -66 23 -140 -2 -116 -14 -146 -59 -145 -19 1 -37 -2 -40 -5 -9 -9 12
-90 26 -99 7 -4 16 -6 19 -4 7 5 -34 -123 -60 -187 -34 -80 -23 -133 38 -191
l29 -28 7 23 c3 13 6 38 6 57 0 27 51 139 76 170 8 9 34 -23 34 -43 0 -26 53
-141 71 -151 9 -6 11 -3 6 9 -4 10 -10 35 -13 55 -6 35 -4 38 17 37 19 -1 29
9 49 50 49 101 70 103 70 7 0 -67 17 -78 25 -16 18 137 64 263 97 263 13 0 18
5 15 14 -4 9 4 18 23 25 27 9 28 13 23 47 -6 36 -5 37 21 30 l27 -7 -7 51 c-5
41 -4 49 7 45 8 -3 19 -1 25 3 23 15 64 112 64 151 0 22 4 51 9 64 6 15 6 41
0 67 -13 60 -5 79 22 54 12 -11 30 -36 41 -57 17 -34 18 -45 9 -88 -6 -27 -20
-67 -30 -88 -13 -24 -20 -58 -19 -90 0 -38 -7 -67 -26 -103 -15 -28 -25 -53
-22 -55 7 -7 56 82 56 103 0 10 14 69 30 129 38 138 38 179 2 252 -47 96 -52
102 -109 114 -70 16 -83 32 -53 64 17 18 34 25 59 25 34 0 107 11 179 26 45 9
40 -7 -12 -44 -37 -27 -53 -32 -100 -32 -41 0 -56 -4 -56 -14 0 -24 92 -31
127 -10 47 30 84 67 105 107 22 43 17 58 -12 39 -32 -20 -102 -32 -122 -21
-25 14 -22 25 12 46 33 19 42 40 11 23 -29 -15 -73 -12 -100 6 -27 19 -14 34
31 34 15 0 48 10 73 22 46 23 67 20 45 -7 -7 -9 -10 -18 -7 -21 8 -9 52 38 72
76 l17 33 -24 -7 c-12 -4 -45 -14 -73 -22 -85 -27 -128 -28 -179 -5 -26 11
-53 18 -61 15 -16 -7 -42 30 -46 66 -4 33 -1 34 46 14 22 -10 70 -19 108 -20
37 -2 76 -6 87 -9 25 -8 86 25 67 37 -6 4 -37 8 -67 8 -82 0 -124 15 -163 60
-32 34 -77 143 -77 184 0 6 -25 36 -55 66 -55 54 -72 89 -37 75 39 -16 117
-16 137 0 19 16 19 17 1 27 -47 26 -77 65 -90 115 -7 28 -29 76 -48 105 -19
29 -50 77 -68 106 -21 35 -41 54 -59 59 -14 3 -39 17 -54 30 -16 12 -37 23
-47 23 -10 0 -40 18 -65 40 -25 22 -50 40 -55 40 -16 0 -41 46 -34 64 4 10 18
16 40 16 38 0 54 21 34 45 -7 8 -34 21 -60 29 -69 20 -108 43 -115 66 -7 22
-101 90 -124 90 -11 0 -10 -5 3 -25z m376 -920 c9 -11 10 -29 3 -69 -8 -44 -7
-60 8 -87 24 -48 96 -127 132 -145 102 -53 177 -233 150 -358 -16 -72 -31 -53
-34 41 -4 81 -7 94 -39 147 -28 47 -51 69 -120 114 -81 53 -163 92 -195 92
-16 0 -55 -34 -55 -49 0 -4 25 -25 56 -45 40 -25 68 -36 94 -36 33 0 40 -4 54
-34 9 -19 29 -45 45 -59 25 -21 29 -30 27 -73 -1 -46 -3 -50 -34 -60 -30 -9
-38 -20 -63 -83 -42 -103 -85 -164 -113 -157 -11 3 -31 6 -42 6 -18 0 -27 14
-49 75 -15 41 -45 104 -66 140 -51 88 -53 96 -36 178 16 72 32 186 29 199 -1
4 3 20 9 35 7 20 7 33 -2 50 -11 21 -9 27 26 63 21 21 50 42 66 45 15 3 46 24
70 46 46 42 60 47 79 24z"/>
<path d="M4272 16850 c-73 -72 -163 -239 -129 -240 7 0 4 -5 -5 -11 -10 -5
-18 -19 -18 -30 0 -30 -43 -67 -86 -74 -126 -21 -228 -95 -283 -207 -27 -54
-31 -71 -31 -147 0 -104 17 -145 89 -225 28 -31 51 -60 51 -64 0 -4 -32 -29
-72 -57 -128 -90 -168 -166 -168 -319 0 -89 6 -105 84 -226 62 -95 70 -120 62
-197 -4 -36 -13 -77 -21 -92 -32 -61 -116 -131 -185 -154 -24 -8 -46 -19 -48
-25 -5 -16 106 -5 131 13 31 22 79 19 100 -6 17 -19 17 -23 3 -44 -23 -34 -20
-38 18 -31 38 7 36 11 52 -94 10 -71 60 -159 128 -225 64 -63 121 -133 114
-141 -10 -10 -222 110 -247 140 -30 36 -28 12 5 -46 35 -64 90 -122 147 -156
27 -16 35 -17 45 -5 30 31 81 10 136 -55 36 -43 46 -72 25 -72 -5 0 -8 -3 -6
-7 6 -9 114 -9 123 -1 3 3 -9 16 -27 28 -40 29 -61 79 -58 142 2 45 4 48 17
32 7 -11 24 -39 37 -64 24 -46 100 -118 168 -159 36 -22 42 -31 37 -61 -3 -23
-20 -30 -75 -31 -27 -1 -63 -4 -80 -8 -24 -6 -15 -8 42 -13 39 -4 85 -14 101
-22 30 -16 82 -70 82 -87 0 -5 5 -9 12 -9 6 0 9 3 6 6 -3 3 0 31 8 62 7 31 13
85 14 120 0 36 6 76 15 93 16 29 15 30 -16 47 -47 25 -107 80 -115 105 -7 23
-17 47 -84 195 -54 119 -66 199 -44 286 22 88 79 136 196 166 49 13 158 99
158 126 0 20 -11 17 -56 -15 -50 -36 -187 -94 -214 -89 -31 5 -28 22 6 28 27
5 28 7 9 17 -84 46 -304 39 -305 -9 0 -5 15 -8 33 -8 40 0 51 -8 36 -27 -9
-10 -26 -12 -63 -7 l-51 7 27 -29 c24 -27 26 -35 23 -104 -1 -41 -6 -83 -10
-92 -9 -22 47 -78 77 -78 17 0 19 4 13 28 -5 15 -9 60 -9 100 -1 89 11 102 92
102 l54 0 -7 -37 c-4 -21 -14 -51 -22 -67 -15 -28 -20 -156 -8 -177 3 -4 7
-32 9 -61 3 -29 16 -89 30 -133 30 -92 34 -128 13 -105 -16 17 -53 110 -62
155 -15 70 -27 86 -83 111 -64 28 -154 85 -195 123 -16 14 -41 49 -55 76 -24
47 -26 58 -25 185 l2 135 41 90 c22 50 46 101 53 115 8 15 39 37 77 56 37 19
92 58 128 93 35 34 69 61 75 61 7 0 20 -8 29 -19 11 -13 24 -17 42 -14 36 7
33 20 -11 40 -24 12 -39 26 -41 40 -3 17 -10 22 -30 21 -15 -1 -35 2 -44 6
-11 5 -18 4 -18 -3 0 -6 9 -11 20 -11 11 0 20 -4 20 -10 0 -5 -9 -10 -21 -10
-12 0 -17 -4 -13 -11 4 -7 -2 -9 -16 -7 -13 1 -28 11 -34 20 -13 21 21 60 77
89 20 11 37 24 37 29 0 17 -64 11 -105 -10 -59 -30 -80 -27 -79 12 1 34 44 78
76 78 25 0 31 18 11 28 -10 5 -37 13 -61 17 -73 12 -202 120 -202 169 1 19 2
19 22 -7 11 -16 37 -38 57 -50 33 -20 50 -22 188 -22 111 0 155 3 165 13 23
22 -10 32 -113 32 -166 0 -279 50 -263 116 4 13 2 30 -4 37 -22 28 -20 68 4
95 17 19 22 22 18 8 -7 -17 -3 -18 47 -11 77 11 94 19 136 66 21 23 56 61 79
83 59 59 69 98 16 60 -18 -12 -22 -13 -22 -1 0 22 40 52 125 95 92 46 128 78
105 93 -8 5 -22 6 -30 2 -31 -15 -145 -2 -195 21 l-50 23 49 1 c42 0 53 5 88
39 42 40 86 113 68 113 -5 0 -10 8 -10 18 0 32 -19 41 -54 27 -17 -7 -43 -11
-58 -8 -18 3 -37 -2 -57 -17 -17 -12 -31 -17 -31 -12 0 22 42 107 71 143 17
22 29 39 26 39 -2 0 -27 -23 -55 -50z"/>
<path d="M6720 16475 c0 -40 -8 -44 -33 -15 -15 18 -37 27 -37 16 0 -3 15 -28
33 -57 29 -48 32 -59 31 -129 l-1 -77 23 20 c13 11 24 26 24 33 0 19 19 27 35
14 11 -9 16 -7 24 9 17 31 13 49 -11 57 -13 5 -26 7 -30 6 -5 -1 -8 19 -8 46
0 41 -28 112 -45 112 -3 0 -5 -16 -5 -35z"/>
<path d="M7930 16160 c1 -44 48 -161 96 -239 26 -42 64 -105 84 -141 105 -186
215 -349 312 -460 94 -109 355 -324 615 -507 115 -82 167 -127 316 -273 l138
-135 -6 60 c-9 92 -16 128 -22 121 -4 -4 -20 7 -37 23 -17 16 -58 39 -90 50
-71 25 -118 67 -153 139 -14 29 -31 51 -37 49 -17 -6 -96 37 -151 84 -27 23
-78 55 -111 71 -34 16 -74 43 -90 59 -15 16 -34 29 -43 29 -17 0 -211 190
-211 207 0 6 -19 26 -42 44 -24 18 -57 47 -75 65 -17 17 -34 30 -36 28 -2 -3
-10 3 -18 13 -10 12 -10 15 -1 9 15 -9 -82 142 -102 158 -42 34 -239 363 -278
466 -33 86 -58 120 -58 80z"/>
<path d="M5388 15473 c-9 -9 -29 -17 -45 -17 -59 -3 -123 -153 -108 -252 3
-24 10 -44 15 -44 5 0 23 30 40 66 19 41 51 86 85 120 51 51 64 83 28 70 -11
-5 -10 3 6 29 12 20 21 38 21 41 0 10 -27 3 -42 -13z"/>
<path d="M5592 15448 c-16 -25 -28 -33 -54 -34 -18 -1 -39 -2 -45 -3 -29 -2
-5 -151 28 -171 16 -11 29 6 29 37 0 12 18 57 40 99 22 43 40 83 40 91 0 23
-17 14 -38 -19z"/>
<path d="M5283 14933 c-17 -2 -37 -11 -43 -19 -11 -12 12 -14 171 -14 126 0
203 -5 244 -15 115 -28 144 -12 48 26 -51 20 -78 23 -223 25 -91 1 -179 0
-197 -3z"/>
<path d="M9806 14855 c-9 -22 -21 -50 -26 -62 -5 -12 -28 -34 -51 -49 -39 -24
-47 -26 -115 -19 l-74 7 1 -219 c0 -189 2 -213 13 -183 7 19 16 100 19 180 3
80 8 153 12 162 6 16 16 17 76 12 l69 -7 39 39 c41 42 65 104 58 152 -3 26 -4
25 -21 -13z"/>
<path d="M5348 14686 c-98 -33 -148 -59 -148 -76 0 -10 63 -16 138 -12 40 2
44 -1 78 -48 42 -59 77 -80 133 -80 33 0 49 7 81 36 22 20 40 45 40 55 0 24
17 24 59 -2 42 -26 56 -14 37 32 -25 60 -76 99 -148 115 -100 21 -162 17 -270
-20z"/>
<path d="M6563 14681 c-45 -16 -99 -42 -120 -57 -54 -40 -113 -96 -113 -109 0
-6 -8 -27 -18 -46 -25 -50 -57 -239 -40 -239 4 0 10 12 14 28 12 54 30 91 63
131 19 23 38 41 43 41 4 0 19 -22 33 -50 31 -61 47 -70 124 -70 57 0 61 1 95
42 20 23 36 48 36 55 0 7 5 13 10 13 16 0 60 -47 60 -63 0 -8 6 -20 14 -27 12
-9 18 -4 35 31 26 53 26 69 0 113 -19 33 -103 96 -127 96 -15 0 -16 26 -2 35
25 15 6 25 -42 23 -63 -4 -75 20 -18 35 31 8 173 -2 258 -19 31 -6 28 13 -5
29 -30 16 -142 37 -189 37 -16 0 -66 -13 -111 -29z"/>
<path d="M4478 14668 c-11 -13 -18 -39 -18 -64 0 -36 8 -53 56 -113 55 -71 84
-88 84 -51 0 34 -32 103 -67 144 -28 34 -32 45 -27 73 7 38 -3 42 -28 11z"/>
<path d="M9770 14089 c0 -8 14 -39 32 -69 68 -119 150 -278 173 -336 48 -119
84 -340 105 -634 6 -85 15 -184 20 -220 6 -36 12 -105 15 -153 3 -77 7 -90 27
-107 13 -11 31 -19 40 -20 32 0 32 23 -1 49 -28 23 -31 32 -31 79 0 29 -4 94
-9 145 -5 51 -15 157 -21 237 -36 453 -126 747 -300 977 -27 36 -50 60 -50 52z"/>
<path d="M6230 13977 c0 -8 -14 -27 -31 -41 -36 -30 -98 -34 -164 -11 -47 17
-201 20 -210 4 -11 -17 21 -43 70 -58 50 -15 54 -14 60 18 9 49 30 53 79 16
18 -14 41 -25 52 -25 28 0 64 -11 64 -20 0 -4 -16 -18 -35 -31 -19 -13 -35
-27 -35 -30 0 -3 24 -4 53 -1 57 5 111 27 102 42 -3 5 4 33 16 61 16 37 20 56
13 67 -14 22 -34 27 -34 9z"/>
<path d="M5785 13694 c-38 -15 -55 -14 -162 2 -34 5 -43 3 -43 -9 0 -26 52
-50 125 -58 38 -3 97 -14 129 -23 32 -9 60 -15 62 -13 2 2 -22 16 -53 32 l-57
28 23 18 c33 27 95 24 168 -8 58 -25 62 -29 60 -58 -2 -28 0 -30 33 -30 28 -1
36 -5 38 -23 4 -28 17 -28 36 -1 11 17 20 20 46 14 56 -12 84 36 33 56 -16 6
-42 21 -60 35 -26 20 -43 24 -100 24 -40 1 -78 7 -93 15 -32 19 -134 18 -185
-1z"/>
<path d="M6290 13239 c-129 -27 -195 -46 -295 -86 -134 -54 -217 -63 -345 -38
-110 21 -114 22 -119 10 -8 -17 69 -53 138 -65 36 -6 72 -17 80 -23 16 -13
119 -54 169 -67 19 -4 41 -15 50 -24 14 -12 26 -13 62 -5 65 14 122 38 136 57
8 11 24 15 52 14 33 -2 47 3 76 29 29 25 36 38 36 68 0 21 3 41 7 45 7 7 33
76 33 89 0 9 -21 8 -80 -4z"/>
<path d="M10505 12494 l-38 -46 13 -71 c7 -40 16 -100 19 -134 4 -43 13 -69
26 -83 20 -19 20 -19 22 51 2 51 8 78 22 98 23 32 40 87 24 78 -14 -9 -20 9
-29 83 -4 33 -10 62 -14 65 -3 2 -24 -16 -45 -41z"/>
<path d="M10370 12328 c-29 -16 -48 -19 -113 -15 -69 5 -78 3 -88 -14 -5 -11
-32 -33 -58 -50 -27 -16 -51 -39 -54 -50 -5 -19 -2 -21 26 -16 60 10 87 26
104 62 31 66 55 19 32 -64 -15 -58 -45 -119 -71 -148 -25 -27 -16 -44 22 -37
26 6 30 3 51 -42 12 -27 52 -80 89 -119 40 -42 88 -108 120 -163 29 -52 67
-112 84 -135 98 -130 247 -359 290 -445 36 -73 84 -257 95 -367 26 -237 6
-386 -101 -755 -42 -147 -204 -562 -303 -775 -51 -111 -160 -428 -211 -615
-43 -158 -65 -473 -45 -650 16 -149 50 -364 77 -490 13 -63 24 -132 24 -152 0
-20 5 -40 10 -43 7 -4 10 31 9 107 -2 91 -6 123 -24 163 -31 72 -38 146 -18
203 21 59 23 248 5 349 -12 63 -11 80 2 127 9 30 16 74 16 99 0 24 7 64 15 87
8 23 12 53 9 66 -8 32 13 118 44 179 17 33 27 75 32 126 6 66 15 92 73 210 37
74 96 188 131 253 35 66 69 137 74 159 l10 39 -24 -23 -24 -22 0 26 c0 14 18
68 40 118 22 51 40 100 40 108 0 9 11 34 25 56 27 43 95 180 95 190 0 3 -4 3
-10 0 -23 -14 -7 63 36 178 42 112 72 231 109 427 16 85 19 206 6 214 -13 8
-19 -26 -15 -83 3 -35 0 -52 -10 -58 -7 -4 -16 -26 -19 -48 -15 -100 -27 -156
-37 -172 -9 -14 -10 -5 -4 37 13 98 8 345 -8 405 -6 22 -12 45 -12 50 -1 6 -9
35 -18 65 -10 30 -24 87 -33 125 -10 43 -31 93 -54 130 -21 33 -44 76 -51 95
-7 19 -25 51 -39 70 -14 19 -17 29 -8 21 16 -13 25 -2 10 12 -7 8 -42 101 -48
131 -3 11 -8 22 -12 25 -5 3 -20 24 -36 46 -15 22 -43 51 -62 65 -32 23 -180
255 -192 301 -6 20 12 27 87 31 42 3 45 1 48 -24 2 -16 18 -40 39 -59 35 -30
39 -31 102 -25 36 3 89 6 117 6 46 0 52 3 56 23 4 21 2 22 -72 21 -42 -1 -86
-6 -97 -13 -34 -18 -60 -13 -82 15 -30 38 -27 78 7 102 20 16 24 23 15 32 -8
9 -30 8 -91 -4 -100 -20 -115 -20 -135 2 -27 30 -21 72 15 109 33 34 33 52 0
34 -31 -17 -45 7 -33 58 5 22 6 41 3 41 -3 0 9 15 27 34 18 19 31 41 29 49 -2
12 -8 12 -38 -5z"/>
<path d="M9485 11610 c-3 -5 -23 -14 -44 -20 -43 -11 -97 -49 -71 -49 8 0 46
13 85 29 38 17 79 30 92 30 45 0 223 -153 223 -192 0 -23 -2 -23 -82 6 l-66
24 -46 -24 c-24 -13 -70 -33 -100 -45 -53 -19 -87 -51 -68 -63 5 -3 47 9 93
26 147 55 219 48 294 -27 42 -41 53 -69 47 -112 -6 -40 -62 -22 -62 19 0 25
-6 23 -38 -12 -25 -27 -65 -45 -214 -98 -32 -12 -48 -23 -48 -34 0 -26 51 -23
128 8 82 33 168 49 215 40 22 -4 54 -23 82 -49 40 -36 48 -49 52 -89 4 -33 0
-58 -13 -87 -19 -41 -34 -53 -34 -26 0 8 5 15 10 15 6 0 10 9 10 20 0 31 -16
28 -190 -38 -115 -43 -125 -51 -106 -77 13 -18 18 -19 63 -6 91 25 138 32 192
25 49 -6 61 -13 113 -64 l59 -57 -7 -59 c-4 -38 -15 -72 -32 -96 -13 -21 -27
-38 -29 -38 -2 0 -20 12 -39 26 -25 19 -33 32 -29 45 9 28 -16 33 -77 18 -29
-7 -71 -12 -94 -11 -50 3 -124 -29 -257 -111 -68 -42 -99 -68 -103 -84 -9 -36
-73 -63 -173 -74 -47 -5 -99 -9 -115 -9 l-28 0 23 19 24 19 -28 11 c-16 6 -41
11 -56 11 -26 0 -31 -5 -59 -62 -2 -5 7 -8 20 -9 18 0 13 -5 -22 -22 -132 -65
-364 -121 -453 -110 -44 6 -110 -5 -102 -16 3 -5 -25 -21 -63 -36 -37 -15 -81
-35 -98 -46 -25 -15 -51 -19 -125 -19 -52 0 -111 -4 -132 -9 -58 -14 -515 8
-757 35 -380 43 -583 97 -835 222 -150 75 -221 103 -435 175 -172 57 -352 127
-421 163 -30 16 -63 32 -74 36 l-20 8 20 -16 c62 -48 338 -169 536 -234 158
-53 268 -97 419 -170 229 -110 313 -140 478 -169 62 -11 117 -23 121 -25 9 -6
125 -21 281 -37 52 -5 183 -14 290 -19 107 -5 223 -12 258 -16 66 -7 63 -4 75
-74 2 -14 14 -59 25 -100 29 -104 41 -246 37 -442 -3 -152 -5 -171 -25 -203
-44 -72 -12 -53 97 57 165 167 173 174 173 155 0 -9 -27 -49 -59 -89 -33 -40
-58 -74 -56 -76 2 -2 17 4 34 13 l31 16 0 -34 c0 -18 -7 -42 -15 -54 -13 -19
-13 -23 1 -37 22 -22 44 -20 87 10 37 25 39 25 58 8 16 -14 19 -31 19 -108 0
-50 -9 -140 -20 -200 -21 -116 -25 -166 -12 -166 4 0 23 72 41 160 l34 160 -9
178 c-4 97 -9 305 -9 462 -1 305 -7 347 -50 398 -34 40 -22 48 106 67 57 9
136 25 174 35 39 10 97 23 131 29 33 6 89 23 125 37 77 31 198 59 294 69 83 8
184 32 204 48 8 7 12 8 9 2 -3 -5 -2 -19 3 -30 7 -18 8 -17 8 7 1 28 62 88 91
88 15 1 125 55 254 125 100 55 135 59 191 24 27 -17 59 -29 79 -29 30 0 37 6
59 43 16 27 27 66 31 109 l7 67 -41 45 c-23 25 -50 48 -61 51 -28 9 -33 46
-15 108 9 30 16 66 16 79 0 30 -37 89 -77 123 -28 22 -33 34 -33 69 0 25 -10
62 -25 91 -13 27 -29 74 -36 105 -13 68 -44 115 -106 162 -103 78 -124 88
-174 88 -26 0 -51 -4 -54 -10z"/>
<path d="M7450 11572 c0 -54 160 -119 484 -197 124 -30 178 -37 349 -46 150
-9 225 -9 292 -1 50 7 156 14 238 18 131 5 174 13 150 27 -5 3 -91 1 -193 -4
-258 -13 -309 -16 -360 -23 -25 -4 -76 -2 -115 5 -38 6 -104 15 -145 19 -41 4
-91 13 -110 19 -19 6 -66 18 -105 26 -38 8 -106 29 -150 46 -44 17 -100 37
-125 45 -25 8 -54 18 -65 24 -31 15 -137 60 -141 60 -2 0 -4 -8 -4 -18z"/>
<path d="M7790 11254 c0 -14 12 -27 53 -58 21 -15 36 -30 34 -33 -3 -2 -27 3
-55 12 -68 22 -102 15 -47 -9 85 -39 216 -75 311 -86 54 -7 108 -16 119 -20
28 -12 164 -19 170 -9 3 4 -16 10 -42 14 -27 3 -88 12 -138 20 -49 8 -106 17
-125 19 -113 18 -135 26 -185 74 -69 66 -95 87 -95 76z"/>
<path d="M3910 11166 c-16 -44 -25 -110 -13 -103 18 11 23 -20 23 -138 0 -80
5 -123 16 -151 13 -31 14 -47 5 -94 -17 -84 2 -164 47 -210 35 -34 35 -29 1
20 -9 14 -20 52 -23 85 -6 55 -5 58 9 41 8 -11 15 -25 15 -32 0 -7 4 -15 8
-18 10 -6 3 39 -26 185 -13 67 -20 145 -21 255 -2 121 -5 162 -16 173 -12 13
-16 11 -25 -13z"/>
<path d="M9458 10309 c-6 -16 -15 -96 -38 -360 -12 -134 -14 -476 -2 -465 4 4
12 89 18 189 7 100 17 229 23 287 12 108 11 378 -1 349z"/>
<path d="M9407 8548 c-2 -57 -10 -227 -16 -378 -7 -151 -11 -318 -9 -371 3
-85 2 -95 -13 -92 -19 5 -135 -29 -176 -51 -36 -19 -23 -20 22 -2 113 48 181
28 353 -102 l32 -24 0 21 c0 12 -4 20 -8 17 -13 -8 -129 80 -136 102 -4 11 -5
230 -4 487 l3 467 -22 15 -22 15 -4 -104z"/>
<path d="M8326 8425 c7 -47 40 -159 57 -195 12 -24 68 -57 164 -95 59 -24 95
-68 132 -160 18 -44 41 -92 51 -106 18 -25 18 -28 2 -42 -16 -15 -22 -13 -67
16 l-49 32 -161 -3 c-88 -1 -173 -5 -189 -8 l-29 -6 32 -15 c37 -19 32 -30
-17 -38 -89 -14 -171 -39 -222 -65 -64 -34 -45 -39 41 -10 103 35 208 44 352
31 81 -8 144 -19 170 -31 23 -10 67 -23 97 -29 40 -8 66 -21 94 -47 33 -31 50
-38 103 -44 35 -5 69 -13 76 -18 19 -16 16 88 -4 118 -9 14 -49 52 -89 85
-154 128 -148 121 -175 209 -31 101 -61 133 -164 176 -111 45 -136 73 -182
203 -20 56 -28 69 -23 42z"/>
<path d="M10138 7754 c-5 -9 20 -123 86 -383 25 -102 35 -127 56 -140 23 -15
24 -15 16 4 -12 31 -80 279 -105 385 -24 99 -44 149 -53 134z"/>
<path d="M11068 7056 c-26 -31 -62 -56 -124 -86 l-87 -43 -138 -1 c-76 0 -134
-5 -130 -9 5 -5 85 -7 177 -5 144 3 176 7 214 25 49 22 103 72 127 117 25 48
0 49 -39 2z"/>
<path d="M10450 6942 c0 -7 -4 -10 -10 -7 -6 4 -10 -10 -10 -34 0 -21 5 -41
10 -43 6 -2 28 -55 49 -118 43 -126 175 -434 222 -517 28 -48 62 -83 81 -83 4
0 -6 21 -22 47 -17 26 -30 52 -30 58 0 6 -21 54 -46 106 -74 153 -96 218 -90
267 4 32 0 57 -18 100 -13 31 -27 74 -31 96 -8 38 -8 38 -47 33 -46 -6 -58 10
-37 49 11 21 10 27 -4 41 -12 12 -17 13 -17 5z"/>
<path d="M9578 5460 c-12 -47 -27 -125 -33 -177 -3 -28 -13 -69 -21 -90 -40
-96 -84 -180 -104 -198 -13 -11 -63 -67 -113 -125 -50 -58 -115 -132 -146
-164 l-56 -60 55 45 c66 55 245 259 305 349 56 84 90 173 110 286 16 88 18
193 3 134z"/>
<path d="M6381 5433 c-7 -15 -15 -50 -18 -78 -3 -27 -10 -55 -14 -61 -5 -6
-11 -36 -13 -67 -3 -31 -8 -62 -11 -68 -4 -5 -20 -72 -35 -147 -55 -264 -69
-321 -84 -344 -8 -13 -31 -66 -50 -118 -19 -52 -50 -132 -70 -177 -56 -126
-41 -121 25 10 60 120 112 249 154 389 30 100 88 386 81 403 -2 7 -2 16 2 19
3 4 7 14 8 24 2 18 28 155 40 210 8 39 2 41 -15 5z"/>
<path d="M8907 4733 c-12 -3 -15 -11 -11 -28 8 -34 -30 -55 -123 -66 -90 -12
-148 -40 -162 -80 -5 -15 -21 -35 -34 -44 -27 -17 -47 -78 -47 -143 0 -21 -7
-47 -15 -58 -8 -10 -15 -26 -15 -35 0 -14 7 -15 50 -8 53 8 92 31 110 64 9 18
52 31 47 15 -9 -25 76 30 220 143 40 31 72 62 70 68 -1 6 5 14 13 16 13 4 13
3 0 -7 -13 -10 -13 -11 0 -7 8 2 15 9 15 14 0 6 13 21 29 34 25 19 26 23 11
31 -12 7 -28 1 -62 -26 -54 -42 -67 -40 -29 4 30 36 33 66 10 98 -14 21 -37
25 -77 15z"/>
<path d="M5814 3976 c-43 -40 -86 -85 -94 -100 -14 -28 -204 -194 -288 -253
-61 -43 -46 -42 30 2 63 37 143 99 218 169 86 81 235 256 218 256 -3 0 -40
-33 -84 -74z"/>
<path d="M5830 3634 c-41 -42 -84 -75 -117 -90 -146 -64 -278 -191 -322 -310
-29 -75 -28 -174 1 -251 22 -57 78 -143 114 -174 26 -23 154 -99 165 -99 6 0
32 -23 60 -50 28 -28 46 -44 42 -38 -5 7 -19 29 -31 49 -18 29 -40 45 -108 75
-101 45 -155 98 -206 202 -28 57 -34 80 -36 154 -4 76 -1 94 21 142 14 30 38
72 54 92 37 47 182 156 258 192 42 21 76 47 111 88 89 104 86 113 -6 18z"/>
<path d="M4845 3580 c-10 -11 -21 -17 -26 -14 -4 2 -15 -9 -24 -26 -8 -16 -20
-30 -25 -30 -6 0 -10 -7 -10 -16 0 -8 4 -12 10 -9 6 3 7 -1 4 -9 -7 -19 25
-34 35 -18 6 9 93 19 199 21 21 1 62 33 62 49 0 5 -24 10 -54 11 -49 2 -107
23 -140 50 -10 8 -18 6 -31 -9z"/>
<path d="M6546 3004 c-16 -15 -15 -18 8 -48 14 -17 37 -55 50 -84 14 -29 31
-51 38 -50 9 2 15 -20 20 -72 4 -41 11 -93 16 -115 9 -34 10 -24 11 65 0 77
-5 125 -20 180 -11 41 -24 89 -28 105 -6 26 -12 30 -43 33 -23 2 -41 -3 -52
-14z"/>
<path d="M3815 2645 c-42 -20 -67 -37 -86 -57 -9 -10 -20 -18 -23 -18 -4 0
-28 -14 -53 -31 -25 -18 -62 -37 -82 -43 -107 -34 -270 -180 -237 -213 7 -7
77 39 121 78 17 14 77 62 135 105 58 43 114 87 125 97 11 10 36 27 55 37 82
44 118 80 45 45z"/>
<path d="M6657 2259 c-15 -23 -16 -35 -6 -105 6 -43 18 -97 27 -119 19 -48 22
-166 4 -187 -9 -11 -10 -41 -6 -106 l7 -92 -37 -33 c-20 -18 -36 -39 -36 -46
0 -15 63 47 81 80 13 24 21 76 35 235 6 69 3 91 -16 155 -13 41 -26 112 -29
159 -6 85 -6 85 -24 59z"/>
<path d="M2087 1223 c-21 -24 -37 -68 -37 -102 0 -16 -18 -68 -40 -116 -23
-48 -40 -95 -38 -104 6 -31 30 -16 48 31 9 25 26 59 37 75 43 62 83 221 57
230 -6 2 -18 -5 -27 -14z"/>
</g>
</svg>
